<svg width="162" height="48" xmlns="http://www.w3.org/2000/svg" xmlns:xlink="http://www.w3.org/1999/xlink"><defs><path id="a" d="M.161.212h14.441v8.36H.162z"/><path id="c" d="M0 .058h8.34v14.474H0z"/><path id="e" d="M.161.142h14.441v8.359H.162z"/></defs><g fill="none" fill-rule="evenodd"><path fill="#FFF" d="M57.189 35.736v-23.37h3.383v19.999h10.996v3.371zm18.645 0h3.383v-23.37h-3.383zm26.405 0L89.514 18.381v17.355H86.13v-23.37h3.09l12.724 17.432V12.367h3.384v23.369zm13.385-5.555v5.555h-3.383v-23.37h3.383v12.835l11.438-12.834h4.009v.23l-8.57 9.692 9.195 13.179v.268h-3.752l-7.65-10.88zm20.226 5.555h3.384v-23.37h-3.383zm7.098-23.369v3.294h7.833v20.075h3.384V15.66h7.833v-3.294z"/><g transform="translate(16.371 39.287)"><mask id="b" fill="#fff"><use xlink:href="#a"/></mask><path d="M.161 7.45a23.793 23.793 0 0014.441 0L7.382.211.162 7.45z" fill="#26B9DD" mask="url(#b)"/></g><path d="M7.557 41.472a23.64 23.64 0 007.235 4.632l8.96-8.982-5.927-5.94-10.268 10.29" fill="#23ACCE"/><path d="M17.825 31.181l5.928 5.941 8.96 8.982a23.651 23.651 0 007.235-4.632L23.753 25.24l-5.928 5.941" fill="#26B9DD"/><g transform="translate(0 16.756)"><mask id="d" fill="#fff"><use xlink:href="#c"/></mask><path d="M1.12.058a23.95 23.95 0 000 14.474l7.22-7.237L1.12.058z" fill="#4191C2" mask="url(#d)"/></g><path d="M6.371 7.819a23.712 23.712 0 00-4.62 7.25l8.96 8.983 5.928-5.942L6.371 7.819" fill="#3C87B5"/><path d="M16.64 18.11l-5.929 5.941-8.96 8.982a23.718 23.718 0 004.62 7.25l16.196-16.232-5.928-5.94" fill="#4191C2"/><g transform="translate(16.371 .103)"><mask id="f" fill="#fff"><use xlink:href="#e"/></mask><path d="M14.602 1.264a23.793 23.793 0 00-14.44 0l7.22 7.237 7.22-7.237z" fill="#77C19E" mask="url(#f)"/></g><path d="M39.948 6.63A23.64 23.64 0 0032.714 2l-8.961 8.981 5.928 5.942L39.948 6.63" fill="#6EB292"/><path d="M29.68 16.922l-5.927-5.941-8.961-8.982a23.651 23.651 0 00-7.235 4.632l16.196 16.232 5.928-5.941" fill="#77C19E"/><path d="M46.386 31.288a23.95 23.95 0 000-14.473l-7.22 7.236 7.22 7.237z" fill="#55BBB4"/><path d="M41.134 40.284a23.707 23.707 0 004.621-7.251l-8.961-8.982-5.928 5.942 10.268 10.29" fill="#4FADA8"/><path d="M30.866 29.993l5.928-5.942 8.961-8.981a23.714 23.714 0 00-4.621-7.25L24.938 24.05l5.928 5.942" fill="#55BBB4"/><path fill="#5D957A" d="M29.68 16.922l-5.471-5.485-.456-.456 1.185-1.189 5.928 5.942z"/><path fill="#63A183" d="M24.209 11.437l-.456-.457z"/><path d="M21.017 34.38l-3.192-3.199 3.192 3.2m-4.378-2.012l.297-.297-.297.297" fill="#D3D1D1"/><path fill="#2291A9" d="M22.567 38.31l-5.928-5.94.297-.298.889-.89 3.192 3.198 2.736 2.742z"/><path d="M32.052 31.181l-.365-.366.365.366m-1.185-1.188l2.963-2.97-2.963 2.97" fill="#D3D1D1"/><path fill="#45928B" d="M32.052 31.181l-.365-.366-.82-.822 2.963-2.971 2.964-2.97 1.185 1.187z"/><path fill="#499D95" d="M30.866 29.993l5.928-5.942-2.964 2.97z"/><path fill="#D3D1D1" d="M16.64 18.11l-1.186-1.188z"/><path fill="#387296" d="M10.711 24.052l-1.185-1.189 5.928-5.941 1.185 1.188-4.104 4.113-1.823 1.828"/><path fill="#3A7AA0" d="M10.711 24.052l1.824-1.829z"/></g></svg>