<?xml version="1.0" encoding="utf-8"?>
<!-- Generator: Adobe Illustrator 25.3.1, SVG Export Plug-In . SVG Version: 6.00 Build 0)  -->
<svg version="1.1" id="Layer_1" xmlns="http://www.w3.org/2000/svg" xmlns:xlink="http://www.w3.org/1999/xlink" x="0px" y="0px"
	 viewBox="0 0 22.68 22.68" style="enable-background:new 0 0 22.68 22.68;" xml:space="preserve">
<style type="text/css">
	.st0{fill:#56BCB5;}
</style>
<g>
	<path class="st0" d="M6.84,9.84c0.28,0,0.5,0.22,0.5,0.5v1c0,2.21,1.79,4,4,4s4-1.79,4-4v-1c0-0.28,0.22-0.5,0.5-0.5
		s0.5,0.22,0.5,0.5v1c0,2.57-1.95,4.72-4.5,4.98v2.02h3c0.28,0,0.5,0.22,0.5,0.5s-0.22,0.5-0.5,0.5h-7c-0.28,0-0.5-0.22-0.5-0.5
		s0.22-0.5,0.5-0.5h3v-2.02c-2.55-0.26-4.5-2.41-4.5-4.98v-1C6.34,10.06,6.56,9.84,6.84,9.84z"/>
	<path class="st0" d="M13.34,11.34c0,1.1-0.9,2-2,2s-2-0.9-2-2v-5c0-1.1,0.9-2,2-2s2,0.9,2,2V11.34z M11.34,3.34c-1.66,0-3,1.34-3,3
		v5c0,1.66,1.34,3,3,3s3-1.34,3-3v-5C14.34,4.68,13,3.34,11.34,3.34z"/>
</g>
</svg>
